<?xml version="1.0" encoding="UTF-8"?> <svg xmlns="http://www.w3.org/2000/svg" width="603" height="123" viewBox="0 0 603 123" fill="none"><path d="M202.047 71.51L205.113 74.43C202.631 77.1553 200.198 79.102 197.813 80.27C195.477 81.3893 192.825 81.949 189.856 81.949C184.697 81.949 180.585 80.27 177.519 76.912C174.453 73.554 172.92 69.1253 172.92 63.626C172.92 58.0293 174.429 53.5033 177.446 50.048C180.463 46.544 184.43 44.792 189.345 44.792C194.163 44.792 197.959 46.3007 200.733 49.318C203.556 52.3353 204.967 56.399 204.967 61.509C204.967 62.1417 204.918 62.896 204.821 63.772H177.811C177.957 67.7627 179.028 71.1207 181.023 73.846C183.018 76.5713 185.963 77.934 189.856 77.934C192.143 77.934 194.139 77.4717 195.842 76.547C197.594 75.6223 199.662 73.9433 202.047 71.51ZM189.345 48.734C186.23 48.734 183.651 49.7317 181.607 51.727C179.612 53.6737 178.395 56.472 177.957 60.122H200.149C200.052 56.618 199.054 53.844 197.156 51.8C195.258 49.756 192.654 48.734 189.345 48.734ZM237.705 81H232.303L222.083 65.816L211.717 81H206.388L219.163 62.604L207.337 45.741H212.739L222.083 59.319L231.281 45.741H236.537L224.93 62.385L237.705 81ZM257.777 44.865C262.303 44.865 266.026 46.5927 268.946 50.048C271.866 53.5033 273.326 57.932 273.326 63.334C273.326 68.7847 271.866 73.2377 268.946 76.693C266.026 80.1483 262.303 81.876 257.777 81.876C252.18 81.876 248.116 79.832 245.586 75.744V94.14H240.768V45.741H245.294V51.654C247.922 47.128 252.083 44.865 257.777 44.865ZM257.339 77.788C260.648 77.788 263.3 76.4497 265.296 73.773C267.34 71.0963 268.362 67.6167 268.362 63.334C268.362 59.0513 267.364 55.5717 265.369 52.895C263.373 50.2183 260.697 48.88 257.339 48.88C253.737 48.88 250.842 50.1697 248.652 52.749C246.462 55.3283 245.367 58.8567 245.367 63.334C245.367 67.7627 246.462 71.291 248.652 73.919C250.89 76.4983 253.786 77.788 257.339 77.788ZM305.55 71.51L308.616 74.43C306.134 77.1553 303.701 79.102 301.316 80.27C298.98 81.3893 296.328 81.949 293.359 81.949C288.201 81.949 284.088 80.27 281.022 76.912C277.956 73.554 276.423 69.1253 276.423 63.626C276.423 58.0293 277.932 53.5033 280.949 50.048C283.966 46.544 287.933 44.792 292.848 44.792C297.666 44.792 301.462 46.3007 304.236 49.318C307.059 52.3353 308.47 56.399 308.47 61.509C308.47 62.1417 308.422 62.896 308.324 63.772H281.314C281.46 67.7627 282.531 71.1207 284.526 73.846C286.521 76.5713 289.466 77.934 293.359 77.934C295.647 77.934 297.642 77.4717 299.345 76.547C301.097 75.6223 303.166 73.9433 305.55 71.51ZM292.848 48.734C289.734 48.734 287.154 49.7317 285.11 51.727C283.115 53.6737 281.898 56.472 281.46 60.122H303.652C303.555 56.618 302.557 53.844 300.659 51.8C298.761 49.756 296.158 48.734 292.848 48.734ZM326.9 45.376C328.554 45.376 330.404 45.7167 332.448 46.398L331.499 50.267C329.893 49.7803 328.36 49.537 326.9 49.537C324.369 49.537 322.325 50.6077 320.768 52.749C319.21 54.8417 318.432 57.713 318.432 61.363V81H313.614V45.741H318.14V51.216C318.918 49.4153 320.062 48.004 321.571 46.982C323.128 45.9113 324.904 45.376 326.9 45.376ZM356.727 76.547L357.603 80.343C355.364 81.1703 353.052 81.584 350.668 81.584C347.65 81.584 345.46 80.9027 344.098 79.54C342.735 78.1287 342.054 76.0603 342.054 73.335V49.318H335.338V45.741H342.054V33.404H346.872V45.741H356.946V49.318H346.872V72.678C346.872 74.43 347.212 75.671 347.894 76.401C348.575 77.131 349.719 77.496 351.325 77.496C352.979 77.496 354.78 77.1797 356.727 76.547ZM377.371 42.456C380.631 42.456 383.478 42.894 385.912 43.77C388.345 44.646 390.851 46.1547 393.431 48.296L388.321 54.501C386.179 52.7977 384.281 51.654 382.627 51.07C381.021 50.4373 379.196 50.121 377.152 50.121C375.254 50.121 373.721 50.4617 372.553 51.143C371.433 51.8243 370.874 52.7247 370.874 53.844C370.874 55.158 371.944 56.1313 374.086 56.764C375.108 57.056 376.933 57.494 379.561 58.078C384.963 59.2947 388.71 60.7303 390.803 62.385C392.944 64.0397 394.015 66.5703 394.015 69.977C394.015 73.6757 392.579 76.6443 389.708 78.883C386.836 81.073 382.943 82.168 378.028 82.168C374.426 82.168 371.239 81.6327 368.465 80.562C365.739 79.4913 362.917 77.6663 359.997 75.087L365.472 68.955C368.197 71.1937 370.436 72.6537 372.188 73.335C373.94 74.1137 375.959 74.503 378.247 74.503C380.193 74.503 381.751 74.1623 382.919 73.481C384.135 72.7997 384.744 71.8263 384.744 70.561C384.744 68.9063 383.503 67.714 381.021 66.984C380.68 66.9353 379.901 66.765 378.685 66.473C377.517 66.181 376.47 65.9377 375.546 65.743C370.241 64.575 366.615 63.188 364.669 61.582C362.771 59.9273 361.822 57.4453 361.822 54.136C361.822 50.8267 363.209 48.0527 365.983 45.814C368.805 43.5753 372.601 42.456 377.371 42.456ZM423.929 42.456C428.115 42.456 431.375 43.6483 433.711 46.033C436.096 48.369 437.288 51.508 437.288 55.45V81H427.798V58.297C427.798 55.815 427.19 53.917 425.973 52.603C424.805 51.289 423.102 50.632 420.863 50.632C418.673 50.632 416.873 51.362 415.461 52.822C414.05 54.282 413.344 56.18 413.344 58.516V81H403.854V29.17H413.344V47.055C415.875 43.989 419.403 42.456 423.929 42.456ZM465.632 42.456C470.79 42.456 474.781 43.6483 477.604 46.033C480.426 48.4177 481.838 51.6783 481.838 55.815V81H473.297V77.131C470.815 80.5377 466.8 82.241 461.252 82.241C457.261 82.241 454.025 81.3163 451.543 79.467C449.109 77.6177 447.893 74.9897 447.893 71.583C447.893 67.8357 449.255 64.94 451.981 62.896C454.706 60.852 458.721 59.3677 464.026 58.443L472.786 56.837V55.961C472.786 54.1603 472.153 52.7733 470.888 51.8C469.671 50.778 467.968 50.267 465.778 50.267C463.393 50.267 461.446 50.7293 459.938 51.654C458.186 52.7247 456.263 54.282 454.171 56.326L448.185 50.851C452.905 45.2543 458.721 42.456 465.632 42.456ZM462.858 74.649C465.778 74.649 468.162 73.8947 470.012 72.386C471.861 70.8773 472.786 68.6873 472.786 65.816V63.626L466.508 64.94C463.15 65.67 460.741 66.473 459.281 67.349C457.869 68.1763 457.164 69.3687 457.164 70.926C457.164 72.094 457.65 73.0187 458.624 73.7C459.646 74.3327 461.057 74.649 462.858 74.649ZM511.955 43.259C513.464 43.259 515.435 43.624 517.868 44.354L516.189 52.603C514.389 52.1163 512.807 51.873 511.444 51.873C508.914 51.873 506.918 52.822 505.458 54.72C503.998 56.618 503.268 59.246 503.268 62.604V81H493.778V43.697H502.611V49.172C504.558 45.23 507.673 43.259 511.955 43.259ZM542.544 74.138C544.637 74.138 546.437 73.773 547.946 73.043C549.455 72.2643 551.353 70.926 553.64 69.028L558.969 74.868C556.39 77.496 553.786 79.3697 551.158 80.489C548.53 81.6083 545.586 82.168 542.325 82.168C536.339 82.168 531.57 80.3917 528.017 76.839C524.513 73.2863 522.761 68.517 522.761 62.531C522.761 56.6423 524.464 51.8243 527.871 48.077C531.278 44.3297 535.828 42.456 541.522 42.456C547.07 42.456 551.353 44.0863 554.37 47.347C557.436 50.6077 558.969 55.1823 558.969 61.071C558.969 62.093 558.92 63.334 558.823 64.794H532.032C532.47 67.7627 533.565 70.0743 535.317 71.729C537.118 73.335 539.527 74.138 542.544 74.138ZM541.23 49.902C536.412 49.902 533.419 52.603 532.251 58.005H549.698C549.503 55.4743 548.652 53.5033 547.143 52.092C545.683 50.632 543.712 49.902 541.23 49.902Z" fill="black"></path><path d="M36.216 35.1732C38.4259 26.2582 46.4052 20 55.562 20H114.054C127.163 20 136.704 32.4758 133.309 45.1789L114.494 115.589C113.326 119.961 109.377 123 104.866 123H39.945C26.9858 123 17.4714 110.79 20.599 98.1732L36.216 35.1732Z" fill="#2CDA9D"></path><path d="M19.0302 15.1732C21.2444 6.25819 29.239 0 38.4135 0H99.0153C112.15 0 121.709 12.4758 118.308 25.1789L101.44 88.1789C99.0998 96.9213 91.1873 103 82.148 103H9.99173C3.49964 103 -1.26672 96.8951 0.300087 90.5866L19.0302 15.1732Z" fill="#0052CC" fill-opacity="0.89"></path></svg> 